<svg width="25" height="24" viewBox="0 0 25 24" fill="none" xmlns="http://www.w3.org/2000/svg">
<path d="M14.5833 2H6.24996C5.69743 2 5.16752 2.21071 4.77682 2.58579C4.38612 2.96086 4.16663 3.46957 4.16663 4V20C4.16663 20.5304 4.38612 21.0391 4.77682 21.4142C5.16752 21.7893 5.69743 22 6.24996 22H18.75C19.3025 22 19.8324 21.7893 20.2231 21.4142C20.6138 21.0391 20.8333 20.5304 20.8333 20V8M14.5833 2L20.8333 8M14.5833 2V8H20.8333M16.6666 13H8.33329M16.6666 17H8.33329M10.4166 9H8.33329" stroke="#4C4949" stroke-width="1.5" stroke-linecap="round" stroke-linejoin="round"/>
</svg>
