<?xml version="1.0" encoding="UTF-8" standalone="no"?>
<!DOCTYPE svg PUBLIC "-//W3C//DTD SVG 1.1//EN" "http://www.w3.org/Graphics/SVG/1.1/DTD/svg11.dtd">
<svg width="100%" height="100%" viewBox="0 0 1019 1299" version="1.1" xmlns="http://www.w3.org/2000/svg" xmlns:xlink="http://www.w3.org/1999/xlink" xml:space="preserve" xmlns:serif="http://www.serif.com/" style="fill-rule:evenodd;clip-rule:evenodd;stroke-linejoin:round;stroke-miterlimit:2;">
    <path d="M631,115L632.99,116.05C678.148,139.889 709.984,179.48 725.273,228.023C727.824,236.544 729.619,245.218 731,254L731.53,257.334C734.534,280.78 732.7,307.6 722,329C721.925,330.722 721.897,332.446 721.918,334.17L721.938,337.454L721.973,341.039L722.01,348.621C722.033,352.587 722.062,356.553 722.096,360.519C722.272,382.416 721.665,404.032 717.75,425.625L717.093,429.31C712.487,454.249 705.219,479.886 692.975,502.2C691.979,504.054 691.012,505.924 690.075,507.809C683.341,521.09 674.642,532.678 665,544L662.73,546.68C658.662,551.385 658.662,551.385 657,553L655,553L655,555C653.355,556.691 653.355,556.691 651.188,558.563L649.043,560.441C647,562 647,562 644,563L645.426,565.86C651.509,578.294 654.611,588.97 654,603L657.688,603.688C696.91,612.546 731.61,642.09 753,675C764.38,693.193 774.989,714.042 780,735L782.09,732.508C792.69,719.901 803.264,707.612 816.16,697.281C818,695.804 819.82,694.304 821.621,692.781C844.404,673.553 871.94,659.5 899.688,649L902.581,647.904C920.611,641.293 920.611,641.293 925.774,642.821C928.432,644.229 928.974,645.11 930.062,647.875L931.02,650.281C936,664.091 936,664.091 936,668L939.008,666.863C942.598,665.509 946.193,664.169 949.788,662.83C951.866,662.05 953.935,661.254 956.004,660.453L959.687,659.063L963.012,657.785C966.211,656.945 967.907,656.868 971,658C973.5,661.749 973.116,663.269 972.52,667.558C971.666,671.572 970.061,675.107 968.309,678.801L967.167,681.29C965.935,683.97 964.687,686.64 963.437,689.313C962.569,691.196 961.702,693.08 960.837,694.965C959.514,697.848 958.188,700.73 956.859,703.61C952.759,712.494 948.771,721.426 944.812,730.375L939.914,741.427C937.642,746.554 935.365,751.679 933.082,756.801C924.144,776.885 915.267,796.997 906.449,817.134C903.742,823.31 901.031,829.484 898.316,835.656C894.203,845.011 890.096,854.369 885.995,863.73L883.176,870.158C876.071,886.378 869.175,902.69 862.491,919.088L861.626,921.206C860.851,923.104 860.078,925.002 859.306,926.901C858,930 858,930 856.787,932.116C855.718,934.675 856.079,936.206 856.605,938.922L857.216,942.15L858,946L858.936,950.678C859.659,954.263 860.388,957.848 861.123,961.432C865.313,981.888 869.141,1002.31 872,1023L872.394,1025.64C874.099,1037.18 874.244,1048.8 874.349,1060.46C874.366,1062.2 874.389,1063.95 874.417,1065.69C874.805,1092.1 867.99,1114.33 849.625,1133.81C835.524,1147.26 817.299,1152.79 798.125,1153.25C772.681,1152.61 748.022,1144.3 729,1127L726.078,1124.36C703.977,1103.69 693.435,1073.79 692,1044L690.579,1044.99C688.45,1046.48 686.32,1047.96 684.188,1049.44L681.951,1051L679.793,1052.5L677.809,1053.88C676,1055 676,1055 673,1056C672.293,1057.65 671.632,1059.32 671,1061C669.414,1063.32 669.414,1063.32 667.625,1065.56L665.852,1067.82C664,1070 664,1070 661.882,1071.96C655.644,1078.73 656.462,1090.76 656.711,1099.46C657.891,1122.86 668.247,1143.02 685.419,1158.64C697.5,1169.06 712.176,1174.92 726.681,1181.15C750.452,1191.39 776.317,1205.14 787.321,1229.98C789.751,1236.55 791.178,1243 790,1250C788.312,1252.75 788.312,1252.75 786,1254C783.375,1253.94 783.375,1253.94 781,1253C778.855,1249.78 778.602,1248.14 778.125,1244.38C776.553,1234.4 772.549,1227.59 766,1220L764.52,1218.23C752.72,1205.28 734.886,1198.02 719.194,1191.1C689.05,1177.81 664.104,1162.55 651,1131C644.518,1114.11 643.488,1095.81 646,1078L644,1079C634.203,1080.1 625.465,1076.31 616.625,1072.56C572.632,1054.51 525.955,1043.67 479.313,1035.12L476.223,1034.56C465.87,1032.67 455.503,1030.87 445.105,1029.24L442.715,1028.86C434.332,1027.59 427.537,1027.01 420,1031.38C406.748,1038.47 392.624,1043.8 378.402,1048.61L376.467,1049.27C373.38,1050.31 370.286,1051.34 367.185,1052.34C356.292,1055.95 345.321,1060.06 338.062,1069.31C322.918,1086.88 299.405,1097.93 279.246,1108.79C277.735,1109.6 276.226,1110.42 274.719,1111.25C220.531,1140.92 148.265,1174.55 85.375,1156.88C64.726,1150.62 48.075,1137.68 37.688,1118.62C-1.212,1044.18 51.334,913.649 73,841L73.798,838.323C86.436,795.966 99.548,753.235 118,713L119.328,710.075C131.133,684.187 146.254,658.329 167.414,638.852L170,636C169.543,632.253 167.59,629.462 165.688,626.25C156.226,608.71 155.115,587.704 160.684,568.668C166.325,552.948 175.51,541.198 187.299,529.75C195.466,521.732 202.199,513.625 202.437,501.75C202.374,494.482 201.02,487.778 199.5,480.688C194.018,454.463 195.589,428.06 209.914,404.906C214.431,398.499 219.624,392.693 225,387L227.125,384.645C233.093,378.294 239.77,373.345 246.815,368.255C253.823,363.194 260.561,357.768 267,352L269.512,349.777C289.939,330.668 295.165,300.417 300.562,274.187C309.95,228.63 329.048,189.957 361,156L362.867,154.004C397.701,117.92 448.174,97.789 497,91L499.106,90.683C543.556,84.733 591.745,93.72 631,115" style="fill-rule:nonzero;"/>
    <path d="M314,594C315.014,595.648 315.014,595.648 315.754,597.805L316.636,600.234L317.562,602.875C323.74,619.281 332.56,633.746 344,647L345.359,648.58C379.568,687.95 424.755,704.258 474.872,712.43C478,713 478,713 481,714L481,716L478.332,716.367L474.812,716.875L471.332,717.367C468.222,717.957 465.755,718.444 463,720C462.274,721.643 461.607,723.31 461,725C460.299,726.71 459.596,728.42 458.89,730.129C453.538,743.156 448.325,756.238 443.25,769.375C438.297,782.189 433.234,794.96 428.063,807.688L427.138,809.963L426.238,812.179C425.944,812.899 425.652,813.621 425.35,814.363C424.77,815.784 424.186,817.202 423.598,818.619C422.069,822.294 420.631,826.006 419.285,829.752L418.408,832.108C417.858,833.587 417.333,835.076 416.833,836.573C415.763,839.39 414.783,841.546 412.121,843.09C410.096,843.857 408.094,844.45 406,845C381.16,854.213 358.845,869.363 342,890L339.04,893.559C333.768,899.933 328.63,906.355 323.875,913.125C299.045,948.478 299.045,948.478 277.211,953.672C275.861,954.002 274.512,954.333 273.163,954.664C270.345,955.353 267.526,956.035 264.705,956.71C261.094,957.577 257.485,958.453 253.878,959.34C251.096,960.021 248.313,960.699 245.529,961.373L241.536,962.344C239.677,962.795 237.818,963.243 235.958,963.687L232.756,964.457C230,965 230,965 226,965C226.623,958.399 228.16,952.325 230,945.965L230.932,942.685C231.6,940.334 232.27,937.985 232.942,935.637C234.766,929.247 236.578,922.854 238.379,916.457L238.949,914.437C243.392,898.697 247.685,882.917 251.937,867.125L252.482,865.104C256.877,848.772 261.25,832.434 265.5,816.062L266.052,813.952C269.654,802.536 269.654,802.536 269,791L261,791L260.285,794.3C257.885,805.3 255.251,816.223 252.437,827.125C252.227,827.948 252.015,828.77 251.797,829.618C247.349,846.914 242.617,864.128 237.841,881.336C236.068,887.756 234.33,894.186 232.625,900.625C229.284,913.137 225.765,925.598 222.25,938.063L221.381,941.151C220.552,944.092 219.722,947.033 218.891,949.973L218.143,952.631C217.671,954.295 217.178,955.954 216.666,957.606C215.942,959.988 215.942,959.988 215.68,962.463C215.19,965.207 214.705,966.778 213,969C208.226,971.373 203.188,972.423 198.02,973.57C196.489,973.941 194.959,974.315 193.43,974.692C189.387,975.68 185.336,976.622 181.28,977.554C177.248,978.487 173.225,979.456 169.201,980.426L162.109,982.134C159.779,982.693 157.448,983.249 155.115,983.801C133.527,988.383 133.527,988.383 113,996C111.838,998.394 111.838,998.394 112,1001C112.871,1003.04 112.871,1003.04 115,1004C120.55,1003.49 125.789,1002.09 131.152,1000.62L136.786,999.103L139.81,998.283C171.425,989.733 203.207,981.857 235,974L241.399,972.416C245.913,971.299 250.428,970.187 254.944,969.081L259.625,967.931C261.704,967.419 263.783,966.911 265.863,966.406L269.279,965.572C272,965 272,965 275,965L274.379,967.379L273.562,970.562L272.754,973.692C266.957,999.133 270.782,1028.39 284.312,1050.81C290.996,1060.72 299.774,1071.23 311,1076C306.71,1080.83 301.755,1083.79 296.188,1087L293.261,1088.7C235.438,1122.17 159.276,1162.85 90.187,1146.31C72.499,1141.11 58.152,1131.52 48.867,1115.48C33.214,1086.33 36.461,1050.7 41,1019L41.44,1015.92C49.703,960.502 64.908,904.907 81.27,851.393C82.113,848.624 82.952,845.854 83.787,843.082C138.556,661.747 138.556,661.747 204.287,626.46C206.517,625.292 208.757,624.144 211,623L213.011,621.943C239.686,607.996 270.431,601.221 299.688,594.938L302.692,594.282L305.449,593.715L307.835,593.219C310.251,592.975 311.762,593.041 314,594M619,201C633.353,203.465 649.27,220.771 659.556,230.619C660.84,231.843 662.132,233.06 663.43,234.269C697.762,267.197 710.027,311.815 711.178,358.119C712.521,423.132 697.898,490.867 653,540L650.512,542.742C629.574,564.742 600.997,575.761 571,577C521.59,578.195 475.012,557.287 439.422,523.672C432.754,517.21 426.615,510.404 421,503L419.663,501.27C406.241,483.777 396.233,464.157 389.667,443.128C388.682,439.985 387.618,436.87 386.563,433.75C386.04,432.167 385.519,430.584 385,429C381.165,429.52 378.16,430.247 374.75,432.063C366.583,435.785 359.176,434.329 350.953,431.324C336.215,424.715 326.075,412.129 320.188,397.375C314.197,381.468 313.028,361.785 320,346C324.205,338.424 331.4,331.066 339.813,328.438C349.533,326.493 358.237,328.395 366.598,333.625C377.476,341.695 384.038,353.115 390,365C394.133,365.19 395.65,365.222 399.25,362.938C408.168,354.514 413.753,343.328 417.844,331.949C419,329 419,329 421,327C423.821,326.398 426.655,325.856 429.5,325.375C487.895,314.382 563.273,282.15 600,233L602.27,229.984C607.485,222.77 611.546,215.354 615.371,207.336C617,204 617,204 619,201" style="fill:rgb(254,254,254);fill-rule:nonzero;"/>
    <path d="M471,727C480.223,726.914 489.156,727.457 498.313,728.563L500.51,728.824C532.42,732.674 563.816,739.309 595,747L597.046,747.503C626.13,754.68 654.734,763.658 682.75,774.25L685.003,775.099C701.349,781.287 717.201,788.543 733,796C732.444,800.07 731.555,803.444 729.848,807.176L728.512,810.14L727.062,813.313C723.363,821.563 719.801,829.833 716.5,838.25C711.79,850.204 706.817,862.042 701.813,873.875L700.56,876.836C694.924,890.153 689.247,903.453 683.53,916.736C679.931,925.09 676.381,933.464 672.879,941.859L671.805,944.438L669.613,949.703L668.5,952.375L667.387,955.048C660.351,971.928 653.077,988.7 645.767,1005.46C637.597,1024.21 629.653,1043.04 622,1062C617.897,1061.42 614.253,1060.49 610.379,1059.03L607.098,1057.82L603.563,1056.5C555.573,1039.09 504.578,1027.37 454.063,1020.19C453.158,1020.06 452.253,1019.93 451.32,1019.79L448.985,1019.47C447,1019 447,1019 444,1017L445.655,1016.12C493.236,992.89 493.236,992.89 530,956.562C531.958,949.586 531.468,943.775 529,937L531.781,935.129C545.007,926.303 545.007,926.303 553,913C553.522,907.794 553.471,903.208 551.563,898.313C551,895 551,895 552.355,893.008C553.626,891.619 554.921,890.251 556.238,888.906C559.45,885.431 559.903,882.083 560.312,877.5C559.842,872.229 558.422,869.25 554.437,865.75C550.063,863.523 545.825,862.725 541,862L541.324,859.805C541.869,855.408 542.237,851.87 541.063,847.563C537.47,843.099 532.513,841.188 527,840C491.587,837.388 454.632,846.344 422.52,860.934C420,862 420,862 418,862C420.008,855.784 422.223,849.68 424.613,843.602L425.7,840.824C426.902,837.757 428.106,834.69 429.313,831.625L430.578,828.4C443.876,794.53 457.455,760.771 471,727" style="fill:rgb(236,88,17);fill-rule:nonzero;"/>
    <path d="M397,489C400.004,491.808 402.137,494.606 404.25,498.125C409.618,506.725 416.084,514.219 422.91,521.688C424.673,523.648 426.391,525.649 428.062,527.688C431.372,531.551 435.087,534.761 439,538L440.519,539.285C471.437,565.387 508.113,581.79 548,588C547.438,592.55 546.497,597.045 545.188,601.438C540.749,617.426 537.668,634.371 539,651C540.125,652.356 540.125,652.356 543.063,652.063L546,652C547.706,648.203 548.412,644.818 548.86,640.688L549.293,636.956L549.75,633C550.921,623.398 552.4,614.01 555.063,604.688L555.806,602.033C556.536,599.637 556.536,599.637 558,596C561.046,594.985 561.997,594.986 565.027,595.526L567.486,595.953L570.152,596.441L572.937,596.934C575.939,597.468 578.938,598.014 581.937,598.563L585.032,599.122C687.259,617.605 687.259,617.605 721,654L723.5,656.438L726,659L727.879,660.89C746.51,680.49 757.869,705.909 767,731L767.77,733.078C771.717,743.771 771.717,743.771 771,749C769.374,752.15 767.366,754.99 765.313,757.875L762.113,762.492L760.538,764.749C758.249,768.099 756.112,771.537 754,775C750.741,773.421 747.972,771.603 745.063,769.438C732.436,760.184 719.533,751.867 706,744L703.582,742.585C680.609,729.228 656.162,719.4 631,711L627.805,709.923C593.04,698.323 556.441,691.28 520.063,687.125L516.873,686.76C504.313,685.139 504.313,685.139 492,687C490.965,688.844 490.965,688.844 490.438,691.125C489.233,695.261 487.756,699.069 486,703C455.11,700.252 425.34,692.78 398,678L396.114,676.99C363.876,659.463 342.356,631.628 327,599L325.715,596.29C325,594 325,594 324.934,591.828C326.407,589.303 328.238,589.011 330.964,588.278L333.063,587.75C347.862,583.521 359.329,577.097 370,566L372.012,564.012C390.647,544.456 394.959,514.722 397,489" style="fill:rgb(254,254,254);fill-rule:nonzero;"/>
    <path d="M959,673L957.554,676.212C952.034,688.473 946.516,700.736 941,713L940.052,715.107C929.724,738.071 919.498,761.081 909.288,784.098L905.487,792.66C896.585,812.712 887.757,832.79 879.146,852.97C874.29,864.34 869.355,875.676 864.34,886.977C862.953,890.109 861.567,893.241 860.184,896.375C854.857,908.416 849.48,920.435 844.054,932.432C843.402,933.875 842.751,935.318 842.101,936.762C840.108,941.193 838.074,945.606 836,950L834.682,952.822C832.072,958.004 829.829,960.371 824.375,962.812L822.342,963.752C819.905,964.858 817.457,965.94 815,967C812.835,967.96 810.671,968.922 808.508,969.887C804.988,971.454 801.465,973.014 797.94,974.569C789.765,978.177 781.74,981.981 773.8,986.078C771.306,987.356 768.792,988.595 766.28,989.838C737.032,1004.33 709.031,1020.7 682,1039L679,1041C680.931,1034.86 683.204,1028.99 685.852,1023.12L686.976,1020.6C687.774,1018.81 688.573,1017.02 689.374,1015.23C691.53,1010.42 693.67,1005.59 695.809,1000.77L697.133,997.778C701.405,988.118 705.568,978.413 709.687,968.688L710.741,966.199C712.826,961.272 714.907,956.343 716.984,951.412C717.989,949.027 718.995,946.642 720.002,944.258C726.162,929.671 732.3,915.074 738.406,900.465L739.532,897.771L740.664,895.063L742.938,889.625C748.891,875.376 754.891,861.147 760.938,846.938L762.014,844.408C764.903,837.615 767.796,830.823 770.693,824.033C772.172,820.564 773.649,817.095 775.125,813.625L776.463,810.503C778.383,805.988 780.223,801.479 781.836,796.843C785.52,786.317 789.985,779.717 798,772C799.143,770.703 800.268,769.391 801.375,768.063C808.869,759.43 817.192,751.28 826,744L827.618,742.643C862.449,713.481 902.028,692.733 944.312,676.563L946.228,675.824C947.998,675.145 949.775,674.481 951.551,673.816L954.603,672.674C957,672 957,672 959,673" style="fill:rgb(236,88,17);fill-rule:nonzero;"/>
    <path d="M514.375,849.813L517.895,849.775L521.273,849.77L524.318,849.757C527.088,850.008 528.715,850.426 531,852C531.875,854.938 531.875,854.938 532,858C529.305,862.043 526.091,862.491 521.637,863.785L519.059,864.564C517.227,865.117 515.394,865.666 513.559,866.209C508.724,867.646 503.902,869.123 499.079,870.598L496.167,871.485C473.492,878.417 451.312,886.671 429.365,895.628C427.279,896.478 425.188,897.315 423.088,898.13L420.609,899.133L418.53,899.95C416.842,900.906 416.842,900.906 416.212,902.867C415.982,905.176 416.294,906.803 417,909C424.626,908.575 430.477,906.411 437.438,903.375C461.751,893.147 486.731,884.252 512,876.688L515.59,875.613C537.386,869.259 537.386,869.259 548.125,873.125C550,875 550,875 550.813,878.25C549.808,882.885 548.47,884.342 544.793,887.203C530.251,896.559 512.988,901.908 496.965,908.225C481.245,914.428 465.556,920.708 449.953,927.199C448.58,927.77 447.206,928.338 445.833,928.905C443.926,929.693 442.02,930.486 440.117,931.285L436.824,932.656C434.221,933.895 432.131,935.064 430,937C429.5,939.543 429.5,939.543 430,942L432,944C438.254,943.781 443.213,941.3 448.813,938.688C464.119,931.743 479.755,925.627 495.376,919.434L501.598,916.964L504.672,915.747C510.059,913.608 515.423,911.41 520.762,909.153L524.087,907.747C526.188,906.854 528.287,905.955 530.384,905.05L533.236,903.838L535.739,902.76C538,902 538,902 542,902C543.255,905.765 543.52,908.03 543,912C529.924,935.003 485.854,949.548 462.92,959.706C460.125,960.946 457.338,962.202 454.551,963.459C452.536,964.359 450.51,965.232 448.483,966.106C447.248,966.66 446.014,967.216 444.781,967.773C443.689,968.253 442.596,968.731 441.471,969.224C438.718,970.831 438.718,970.831 438.014,974.077L438,977L440,979C447.71,978.982 453.794,975.529 460.563,972.125C461.76,971.534 462.958,970.944 464.156,970.355C466.596,969.155 469.034,967.95 471.469,966.741C477.576,963.73 483.734,960.828 489.886,957.911C494.381,955.771 498.84,953.585 503.254,951.281L505.752,949.987C507.285,949.188 508.812,948.376 510.332,947.552C513.432,945.938 515.462,944.952 518.992,945.266L521,946C521.533,949.652 521.744,951.834 519.723,955C517.904,957.111 516.005,959.065 514,961L512.316,962.676C474.132,998.309 416.396,1024.36 367.453,1040.88C349.975,1046.8 334.799,1055.31 319.024,1064.81C317.708,1065.58 316.366,1066.32 315,1067C297.833,1056.37 287.323,1039.2 282.563,1019.69C278.897,1002.7 278.906,982.44 285,966C287.488,962.862 289.921,961.378 293.563,959.813C309.363,952.098 319.336,937.375 329.196,923.363C337.613,911.408 346.442,899.936 356.624,889.427C357.911,888.085 359.184,886.73 360.445,885.363C372.492,872.7 388.37,861.711 405,856L408,856C406.994,861.992 404.893,868.528 400.148,872.582L398.25,873.812C394.84,875.662 394.84,875.662 393.938,878.687C393.74,881.199 393.74,881.199 396,883C399.86,883.444 401.842,882.79 405,880.625C419.55,871.494 435.657,865.106 452,860L454.283,859.286C473.953,853.254 493.797,849.824 514.375,849.813" style="fill:rgb(253,253,253);fill-rule:nonzero;"/>
    <path d="M846,951L848,952C848.756,954.796 849.419,957.617 849.988,960.457L850.545,963.117C851.145,966.013 851.73,968.912 852.313,971.813C852.513,972.802 852.713,973.791 852.921,974.81C874.003,1079.15 874.003,1079.15 851,1115C842.916,1126.9 831.973,1135.28 818,1139L816.087,1139.52C793.007,1145.32 769.089,1139.93 749,1128C725.5,1113.52 711.922,1090.73 705.573,1064.39C703.891,1056.99 702.646,1049.56 702,1042L701.743,1039.49C702,1037 702,1037 703.594,1035.43L705.855,1034.09L708.398,1032.55L711.188,1030.94L714.065,1029.22C717.034,1027.46 720.012,1025.72 723,1024C723.88,1023.49 724.762,1022.97 725.669,1022.44C731.742,1018.89 737.853,1015.42 744,1012L746.823,1010.42C765.563,999.987 784.788,990.448 804.433,981.836L806.883,980.76C810.871,979.009 814.864,977.271 818.868,975.555C831.038,970.29 839.793,965.616 845.312,953L846,951Z" style="fill:rgb(254,254,254);fill-rule:nonzero;"/>
    <path d="M921,655L926,673L918.313,676.445C899.25,685.045 880.704,693.812 863,705L860.163,706.78C837.99,720.78 817.277,737.189 799,756C796.783,758.23 794.567,760.457 792.297,762.633C788.765,766.04 785.597,769.63 782.5,773.437L780.184,776.281C778.84,777.95 777.52,779.638 776.223,781.344C771.203,787.675 765.969,790.264 757.996,791.445C751.772,791.797 746.875,790.814 741.129,788.425L739.175,787.62C732.943,785.028 726.778,782.283 720.61,779.545C660.124,752.745 596.396,734.159 531.188,723.188L528.551,722.741C516.403,720.698 504.264,719.158 492,718C492.522,714.405 493.135,711.228 494.629,707.914L495.576,705.785L496.562,703.625L497.561,701.395C498.367,699.594 499.183,697.796 500,696C571.183,700.362 645.478,719.001 707,756L709.28,757.364C719.387,763.452 729.145,770.101 738.508,777.28C746.715,783.747 746.715,783.747 756.562,785.875C761.748,783.046 763.96,778.965 767,774C767.769,772.757 768.54,771.515 769.313,770.273C770.574,768.244 771.834,766.213 773.093,764.181C782.58,748.938 793.64,735.009 806,722L807.536,720.377C814.951,712.597 822.735,705.702 831.333,699.257C832.907,698.063 834.471,696.855 836.023,695.633C843.64,689.73 851.611,684.702 860,680L862.464,678.613C878.08,669.915 894.217,663.084 911,657L914.119,655.864C917,655 917,655 921,655" style="fill:rgb(251,251,251);fill-rule:nonzero;"/>
    <path d="M770,798C767.903,806.127 764.693,813.699 761.337,821.363C759.641,825.24 757.965,829.126 756.289,833.012L755.221,835.485C751.305,844.577 747.526,853.725 743.75,862.875C723.91,910.905 703.454,958.682 682.954,1006.43C679.753,1013.89 676.573,1021.36 673.416,1028.83C672.496,1031.01 671.573,1033.19 670.646,1035.37C668.731,1039.88 666.833,1044.39 665.016,1048.94C661.395,1057.88 658.198,1063.9 649.063,1067.88C643.56,1069.66 638.923,1069.83 633.5,1067.5L631,1066C633.136,1059.17 635.745,1052.63 638.563,1046.06L639.997,1042.69C641.66,1038.79 643.328,1034.9 645,1031L646.904,1026.56C649.78,1019.84 652.658,1013.13 655.537,1006.42C664.824,984.768 674.048,963.09 683.271,941.412C685.42,936.362 687.57,931.313 689.721,926.264C699.496,903.308 699.496,903.308 709.123,880.29C713.487,869.781 717.958,859.317 722.415,848.848C729.332,832.589 736.193,816.306 743,800L745.307,800.487C754.773,802.29 761.64,798 770,798" style="fill:rgb(236,88,17);fill-rule:nonzero;"/>
    <path d="M617.063,348.75C620,350 620,350 621.582,353.59C622.96,357.597 623.832,361.656 624.625,365.813C627.875,381.498 633.36,396.886 639.438,411.688C643.254,421 646.364,431.102 643.348,441.18C639.982,447.68 633.951,452.262 627.082,454.469C618.9,456.556 611.209,456.014 603,454C601,452 601,452 600.75,448.5C601,445 601,445 603,443C604.86,442.729 604.86,442.729 607.105,442.691L609.588,442.615C611.301,442.58 613.015,442.549 614.728,442.521C620.2,442.346 624.17,441.65 629,439C632.008,434.489 631.517,430.291 631,425C630.095,421.304 628.787,417.842 627.375,414.313L626.27,411.406C624.914,407.863 623.534,404.33 622.129,400.806C618.812,392.441 615.993,383.886 613.687,375.188L612.916,372.33C608.587,355.487 608.587,355.487 611.562,350.25C614,349 614,349 617.062,348.75M544.563,300.625L547.464,300.583C554.87,300.632 563.397,300.981 569.287,305.917C571,308 571,308 571.437,311.063C571,314 571,314 570,315.938C566.136,317.99 561.56,316.321 557.453,315.477C541.466,312.288 526.856,314.24 512.785,322.914C508.811,325.89 505.573,329.392 502.352,333.156C500,335 500,335 496.836,334.906C494,334 494,334 492,332C491.882,326.114 493.931,323.174 497.926,318.977C511.376,306.159 526.197,300.81 544.563,300.625M558,479C562.717,479.103 566.263,480.475 570.563,482.375C584.78,488.499 599.974,489.925 615,486C617.899,484.836 620.744,483.541 623.527,482.121C626.087,480.961 628.2,480.255 631,480C633.875,482.125 633.875,482.125 636,485C635.844,488.02 635.5,489.495 633.355,491.66C617.615,501.842 597.455,503.768 579.277,499.872C571.409,497.882 561.817,495.142 556.164,489.008C555,487 555,487 555.188,483.875C556,481 556,481 558,479M687,289C689.714,290.922 690.43,291.92 692,295C691.02,300.98 691.02,300.98 689,303C684.461,302.704 680.796,301.598 676.563,299.938C668.117,296.785 661.345,297.736 653,301C651.731,301.697 650.481,302.426 649.25,303.188C645.736,305.148 643.948,305.628 640,305C638.063,303.875 638.063,303.875 637,302C637,298.168 637.69,296.394 640.063,293.375C652.76,283.109 672.505,281.425 687,289M555.875,362.75C559,363 559,363 560.875,364C562.712,367.266 562.565,370.41 562,374C559.795,381.022 555.356,385.63 548.969,389.105C542.509,391.785 536.574,391.035 530,389C524.495,386.478 518.994,383.443 516,378C515.5,374.875 515.5,374.875 516,372C517.625,370.063 517.625,370.063 520,369C525.275,368.88 528.34,371.46 532.266,374.625C535.806,377.431 538.533,377.379 543,377C547.787,374.44 549.272,370.761 551.203,365.926C552.431,362.958 552.503,363.043 555.875,362.75M684,351C685.969,353.311 686,354.729 686,357.75C684.187,363.644 680.692,368.379 675.313,371.5C669.411,374.007 663.358,374.092 657.285,372.117C651.738,369.597 647.04,366.4 644,361C643.419,357.641 643.375,356.042 645.125,353.125C648.081,351.351 649.597,351.345 653,352C654.7,353.535 654.7,353.535 656.438,355.438C658.99,358.215 659.871,358.96 663.625,360.125C667.519,359.981 669.025,359.492 672,357C673.381,355.032 674.715,353.032 676,351C678.96,349.52 680.868,350.152 684,351" style="fill-rule:nonzero;"/>
</svg>
